<?xml version="1.0" encoding="utf-8"?>
<svg id="master-artboard" viewBox="0 0 612.0892944335938 215.8932647705078" version="1.1" xmlns="http://www.w3.org/2000/svg" x="0px" y="0px" style="enable-background:new 0 0 1400 980;" width="612.0892944335938px" height="215.8932647705078px"><defs><style id="ee-google-fonts">@import url(https://fonts.googleapis.com/css?family=Allerta+Stencil:400);</style></defs><rect id="ee-background" x="0" y="0" width="612.0892944335938" height="215.8932647705078" style="fill: white; fill-opacity: 0; pointer-events: none;"/>








































<path d="M 206.9726104736328 148.989990234375 C 210.1326141357422 149.2833251953125 212.98928833007812 150.13331604003906 215.54261779785156 151.53997802734375 C 218.0892791748047 152.9466552734375 220.269287109375 154.76332092285156 222.08261108398438 156.989990234375 C 223.90261840820312 159.21664428710938 225.2959442138672 161.76332092285156 226.2626190185547 164.62998962402344 C 227.22927856445312 167.50332641601562 227.71261596679688 170.49331665039062 227.71261596679688 173.59999084472656 C 227.71261596679688 175.00665283203125 227.62261962890625 176.41331481933594 227.44261169433594 177.81997680664062 L 197.3026123046875 177.81997680664062 L 197.3026123046875 170.07998657226562 L 217.6026153564453 170.07998657226562 C 217.6026153564453 168.5599822998047 217.3526153564453 167.09664916992188 216.8526153564453 165.6899871826172 C 216.35928344726562 164.2833251953125 215.6292724609375 162.97998046875 214.66261291503906 161.7799835205078 C 213.69595336914062 160.57998657226562 212.56594848632812 159.56997680664062 211.27261352539062 158.74998474121094 C 209.98594665527344 157.92999267578125 208.5526123046875 157.42999267578125 206.9726104736328 157.24998474121094 L 206.9726104736328 148.989990234375 M 206.61260986328125 190.739990234375 C 207.25927734375 190.739990234375 208.06594848632812 190.66665649414062 209.03262329101562 190.51998901367188 C 209.99928283691406 190.37332153320312 211.02593994140625 190.1099853515625 212.11260986328125 189.72998046875 C 213.19261169433594 189.34999084472656 214.27593994140625 188.8666534423828 215.36260986328125 188.2799835205078 C 216.44927978515625 187.6933135986328 217.40261840820312 186.989990234375 218.2226104736328 186.16998291015625 L 222.08261108398438 192.0599822998047 C 220.14927673339844 194.45999145507812 217.8959503173828 196.2766571044922 215.32261657714844 197.50997924804688 C 212.74261474609375 198.7366485595703 209.45928955078125 199.34999084472656 205.4726104736328 199.34999084472656 C 202.2526092529297 199.34999084472656 199.23594665527344 198.6899871826172 196.422607421875 197.36997985839844 C 193.60928344726562 196.05665588378906 191.20594787597656 194.25665283203125 189.21261596679688 191.96998596191406 C 187.2192840576172 189.68331909179688 185.6392822265625 187.0166473388672 184.4726104736328 183.96998596191406 C 183.29928588867188 180.92332458496094 182.71261596679688 177.643310546875 182.71261596679688 174.12998962402344 C 182.71261596679688 170.78997802734375 183.2526092529297 167.62332153320312 184.33261108398438 164.62998962402344 C 185.41928100585938 161.643310546875 186.89927673339844 159.0233154296875 188.77261352539062 156.76998901367188 C 190.65261840820312 154.50997924804688 192.83595275878906 152.67999267578125 195.32261657714844 151.2799835205078 C 197.81594848632812 149.87332153320312 200.49594116210938 149.07998657226562 203.36260986328125 148.89999389648438 L 203.36260986328125 157.33998107910156 C 201.19595336914062 157.75332641601562 199.40928649902344 158.63331604003906 198.0026092529297 159.97998046875 C 196.595947265625 161.32666015625 195.49928283691406 162.86331176757812 194.71261596679688 164.58998107910156 C 193.91928100585938 166.316650390625 193.36260986328125 168.08998107910156 193.04261779785156 169.9099884033203 C 192.7159423828125 171.7233123779297 192.5526123046875 173.2766571044922 192.5526123046875 174.56997680664062 C 192.5526123046875 176.84999084472656 192.83261108398438 178.9733123779297 193.39260864257812 180.9399871826172 C 193.94595336914062 182.8999786376953 194.8092803955078 184.59999084472656 195.9826202392578 186.03997802734375 C 197.15594482421875 187.4733123779297 198.60594177246094 188.61331176757812 200.33261108398438 189.45999145507812 C 202.0592803955078 190.31332397460938 204.15261840820312 190.739990234375 206.61260986328125 190.739990234375 ZM 273.7408447265625 164.89999389648438 C 275.0875244140625 165.0733184814453 276.5242004394531 165.51332092285156 278.05084228515625 166.21998596191406 C 279.5775146484375 166.91998291015625 280.9975280761719 167.91665649414062 282.31085205078125 169.20999145507812 C 283.630859375 170.49664306640625 284.7308654785156 172.06332397460938 285.61083984375 173.9099884033203 C 286.4908447265625 175.75665283203125 286.93084716796875 177.87998962402344 286.93084716796875 180.2799835205078 C 286.93084716796875 183.20664978027344 286.4908447265625 185.72665405273438 285.61083984375 187.83998107910156 C 284.7308654785156 189.9466552734375 283.630859375 191.6899871826172 282.31085205078125 193.0699920654297 C 280.9975280761719 194.4433135986328 279.5641784667969 195.5266571044922 278.0108642578125 196.3199920654297 C 276.45751953125 197.11331176757812 274.9608459472656 197.71331787109375 273.5208435058594 198.11997985839844 C 272.0875244140625 198.5333251953125 270.8141784667969 198.7833251953125 269.70086669921875 198.86997985839844 C 268.5875244140625 198.95664978027344 267.85418701171875 198.99998474121094 267.5008544921875 198.99998474121094 L 257.31085205078125 198.99998474121094 L 257.31085205078125 191.26998901367188 L 266.890869140625 191.26998901367188 C 269.9975280761719 191.26998901367188 272.4275207519531 190.2733154296875 274.18084716796875 188.2799835205078 C 275.94085693359375 186.28665161132812 276.82086181640625 183.61997985839844 276.82086181640625 180.2799835205078 C 276.82086181640625 177.11331176757812 275.9141845703125 174.4466552734375 274.1008605957031 172.2799835205078 C 272.2808532714844 170.11331176757812 269.61419677734375 169.0299835205078 266.1008605957031 169.0299835205078 L 257.31085205078125 169.0299835205078 L 257.31085205078125 161.9099884033203 L 261.5308532714844 161.9099884033203 C 262.8175354003906 161.9099884033203 264.1341857910156 161.87998962402344 265.4808654785156 161.81997680664062 C 266.8275146484375 161.75997924804688 268.0875244140625 161.4399871826172 269.2608642578125 160.8599853515625 C 270.4342041015625 160.2733154296875 271.38751220703125 159.2766571044922 272.120849609375 157.86997985839844 C 272.85418701171875 156.46331787109375 273.2208557128906 154.4399871826172 273.2208557128906 151.79998779296875 C 273.2208557128906 150.74664306640625 273.0741882324219 149.64999389648438 272.7808532714844 148.50997924804688 C 272.4875183105469 147.36331176757812 271.9008483886719 146.3233184814453 271.0208435058594 145.38998413085938 C 270.140869140625 144.44998168945312 268.880859375 143.6866455078125 267.2408447265625 143.0999755859375 C 265.6008605957031 142.51332092285156 263.4342041015625 142.21998596191406 260.7408447265625 142.21998596191406 L 257.31085205078125 142.21998596191406 L 257.31085205078125 134.21998596191406 L 261.7908630371094 134.21998596191406 C 264.544189453125 134.21998596191406 267.2108459472656 134.54331970214844 269.7908630371094 135.1899871826172 C 272.370849609375 135.83665466308594 274.6541748046875 136.86331176757812 276.640869140625 138.26998901367188 C 278.6341857910156 139.67665100097656 280.217529296875 141.50665283203125 281.390869140625 143.75997924804688 C 282.5641784667969 146.01332092285156 283.1508483886719 148.6933135986328 283.1508483886719 151.79998779296875 C 283.1508483886719 153.61997985839844 282.8575134277344 155.2766571044922 282.2708435058594 156.76998901367188 C 281.6842041015625 158.26332092285156 280.95086669921875 159.566650390625 280.07086181640625 160.67999267578125 C 279.19085693359375 161.79331970214844 278.18084716796875 162.71664428710938 277.0408630371094 163.44998168945312 C 275.9008483886719 164.18331909179688 274.80084228515625 164.66665649414062 273.7408447265625 164.89999389648438 M 243.16085815429688 134.21998596191406 L 253.7008514404297 134.21998596191406 L 253.7008514404297 198.99998474121094 L 243.16085815429688 198.99998474121094 L 243.16085815429688 134.21998596191406 ZM 309.8614196777344 184.0599822998047 C 309.8614196777344 186.6933135986328 310.40472412109375 188.65664672851562 311.49139404296875 189.94998168945312 C 312.5714111328125 191.2366485595703 314.1380615234375 191.9966583251953 316.19140625 192.22998046875 L 316.19140625 199.34999084472656 C 315.95806884765625 199.4099884033203 315.57806396484375 199.4399871826172 315.0513916015625 199.4399871826172 C 313.0580749511719 199.4399871826172 311.1380615234375 199.17665100097656 309.2914123535156 198.6499786376953 C 307.4447326660156 198.12332153320312 305.8180847167969 197.2733154296875 304.4114074707031 196.09999084472656 C 303.0047302246094 194.92665100097656 301.9080810546875 193.37332153320312 301.12139892578125 191.4399871826172 C 300.32806396484375 189.50665283203125 299.931396484375 187.13331604003906 299.931396484375 184.31997680664062 C 299.931396484375 181.62664794921875 300.50140380859375 179.29664611816406 301.64141845703125 177.32998657226562 C 302.7880859375 175.36997985839844 304.2547302246094 173.75997924804688 306.0414123535156 172.49998474121094 C 307.82806396484375 171.239990234375 309.86474609375 170.30331420898438 312.1513977050781 169.6899871826172 C 314.431396484375 169.07664489746094 316.7447509765625 168.76998901367188 319.0914001464844 168.76998901367188 L 322.9613952636719 168.76998901367188 L 322.9613952636719 175.00997924804688 L 321.0213928222656 175.00997924804688 C 319.854736328125 175.00997924804688 318.6247253417969 175.12664794921875 317.3314208984375 175.3599853515625 C 316.04473876953125 175.59332275390625 314.8447265625 176.0333251953125 313.7314147949219 176.67999267578125 C 312.6180725097656 177.31997680664062 311.6947326660156 178.239990234375 310.9613952636719 179.4399871826172 C 310.22808837890625 180.6466522216797 309.8614196777344 182.1866455078125 309.8614196777344 184.0599822998047 M 337.201416015625 184.31997680664062 C 337.201416015625 184.79331970214844 337.22808837890625 185.4833221435547 337.2814025878906 186.38998413085938 C 337.3414001464844 187.29664611816406 337.4613952636719 188.21998596191406 337.64141845703125 189.1599884033203 C 337.8147277832031 190.09332275390625 338.0914001464844 190.9433135986328 338.4714050292969 191.70999145507812 C 338.8514099121094 192.46998596191406 339.36474609375 192.96664428710938 340.01141357421875 193.19998168945312 L 337.201416015625 199.08998107910156 C 336.43475341796875 199.08998107910156 335.6280822753906 198.91331481933594 334.7814025878906 198.5599822998047 C 333.9280700683594 198.20664978027344 333.1080627441406 197.70999145507812 332.3214111328125 197.0699920654297 C 331.528076171875 196.42332458496094 330.854736328125 195.7033233642578 330.3013916015625 194.9099884033203 C 329.74139404296875 194.12332153320312 329.3147277832031 193.25997924804688 329.02142333984375 192.3199920654297 C 328.43475341796875 193.78665161132812 327.278076171875 195.08998107910156 325.5513916015625 196.22998046875 C 323.8247375488281 197.37664794921875 321.90472412109375 198.21331787109375 319.7914123535156 198.739990234375 L 319.7914123535156 192.0599822998047 C 321.19805908203125 191.7666473388672 322.4747314453125 191.1933135986328 323.62139892578125 190.33998107910156 C 324.76141357421875 189.49331665039062 325.74139404296875 188.4833221435547 326.5614013671875 187.3099822998047 L 326.5614013671875 168.76998901367188 C 326.5614013671875 165.8966522216797 326.41473388671875 163.6099853515625 326.12139892578125 161.9099884033203 C 325.82806396484375 160.20999145507812 325.3314208984375 158.96331787109375 324.63140869140625 158.16998291015625 C 323.92474365234375 157.38331604003906 323.0580749511719 156.88665771484375 322.0314025878906 156.67999267578125 C 321.01141357421875 156.4733123779297 319.7980651855469 156.36997985839844 318.39141845703125 156.36997985839844 C 317.09808349609375 156.36997985839844 315.88140869140625 156.5333251953125 314.74139404296875 156.8599853515625 C 313.6014099121094 157.17999267578125 312.5480651855469 157.5599822998047 311.5814208984375 157.99998474121094 C 310.61474609375 158.4399871826172 309.7647399902344 158.92330932617188 309.0314025878906 159.44998168945312 C 308.2980651855469 159.97665405273438 307.7547302246094 160.38665771484375 307.4013977050781 160.67999267578125 L 303.451416015625 154.61997985839844 C 304.0314025878906 153.9733123779297 304.9080810546875 153.31332397460938 306.0814208984375 152.63998413085938 C 307.2547302246094 151.96664428710938 308.604736328125 151.3666534423828 310.13140869140625 150.83998107910156 C 311.6513977050781 150.30665588378906 313.30474853515625 149.87998962402344 315.0914001464844 149.5599822998047 C 316.8780822753906 149.239990234375 318.7380676269531 149.07998657226562 320.6714172363281 149.07998657226562 C 322.431396484375 149.07998657226562 324.1447448730469 149.25665283203125 325.8114013671875 149.6099853515625 C 327.4847412109375 149.95664978027344 329.008056640625 150.53997802734375 330.38140869140625 151.3599853515625 C 331.76141357421875 152.17999267578125 332.9647521972656 153.2799835205078 333.99139404296875 154.6599884033203 C 335.01806640625 156.0333251953125 335.7347412109375 157.74664306640625 336.14141845703125 159.79998779296875 C 336.55474853515625 161.8533172607422 336.8347473144531 163.91998291015625 336.9814147949219 165.99998474121094 C 337.1280822753906 168.07998657226562 337.201416015625 170.143310546875 337.201416015625 172.1899871826172 L 337.201416015625 183.61997985839844 L 337.201416015625 184.31997680664062 ZM 363.4820251464844 149.42999267578125 L 364.6220397949219 154.5299835205078 L 364.6220397949219 181.41998291015625 L 364.6220397949219 181.59999084472656 L 364.6220397949219 198.99998474121094 L 353.9920349121094 198.99998474121094 L 353.9920349121094 149.42999267578125 L 363.4820251464844 149.42999267578125 M 368.2320251464844 151.62998962402344 C 369.6920471191406 150.8099822998047 371.4486999511719 150.17999267578125 373.5020446777344 149.739990234375 C 375.55535888671875 149.29998779296875 378.3387145996094 149.07998657226562 381.85205078125 149.07998657226562 L 381.85205078125 160.14999389648438 C 380.2120361328125 159.68331909179688 378.21868896484375 159.41998291015625 375.8720397949219 159.3599853515625 C 374.5853576660156 159.3599853515625 373.28204345703125 159.46331787109375 371.9620361328125 159.66998291015625 C 370.64202880859375 159.87664794921875 369.3987121582031 160.18331909179688 368.2320251464844 160.58998107910156 L 368.2320251464844 151.62998962402344 ZM 401.7855529785156 184.0599822998047 C 401.7855529785156 186.6933135986328 402.328857421875 188.65664672851562 403.41552734375 189.94998168945312 C 404.49554443359375 191.2366485595703 406.06219482421875 191.9966583251953 408.11553955078125 192.22998046875 L 408.11553955078125 199.34999084472656 C 407.8822021484375 199.4099884033203 407.502197265625 199.4399871826172 406.97552490234375 199.4399871826172 C 404.9822082519531 199.4399871826172 403.06219482421875 199.17665100097656 401.2155456542969 198.6499786376953 C 399.3688659667969 198.12332153320312 397.7422180175781 197.2733154296875 396.3355407714844 196.09999084472656 C 394.9288635253906 194.92665100097656 393.83221435546875 193.37332153320312 393.0455322265625 191.4399871826172 C 392.252197265625 189.50665283203125 391.85552978515625 187.13331604003906 391.85552978515625 184.31997680664062 C 391.85552978515625 181.62664794921875 392.425537109375 179.29664611816406 393.5655517578125 177.32998657226562 C 394.71221923828125 175.36997985839844 396.1788635253906 173.75997924804688 397.9655456542969 172.49998474121094 C 399.752197265625 171.239990234375 401.78887939453125 170.30331420898438 404.0755310058594 169.6899871826172 C 406.35552978515625 169.07664489746094 408.66888427734375 168.76998901367188 411.0155334472656 168.76998901367188 L 414.8855285644531 168.76998901367188 L 414.8855285644531 175.00997924804688 L 412.9455261230469 175.00997924804688 C 411.77886962890625 175.00997924804688 410.5488586425781 175.12664794921875 409.25555419921875 175.3599853515625 C 407.9688720703125 175.59332275390625 406.76885986328125 176.0333251953125 405.6555480957031 176.67999267578125 C 404.5422058105469 177.31997680664062 403.6188659667969 178.239990234375 402.8855285644531 179.4399871826172 C 402.1522216796875 180.6466522216797 401.7855529785156 182.1866455078125 401.7855529785156 184.0599822998047 M 429.12554931640625 184.31997680664062 C 429.12554931640625 184.79331970214844 429.1522216796875 185.4833221435547 429.2055358886719 186.38998413085938 C 429.2655334472656 187.29664611816406 429.3855285644531 188.21998596191406 429.5655517578125 189.1599884033203 C 429.7388610839844 190.09332275390625 430.0155334472656 190.9433135986328 430.3955383300781 191.70999145507812 C 430.7755432128906 192.46998596191406 431.28887939453125 192.96664428710938 431.935546875 193.19998168945312 L 429.12554931640625 199.08998107910156 C 428.35888671875 199.08998107910156 427.5522155761719 198.91331481933594 426.7055358886719 198.5599822998047 C 425.8522033691406 198.20664978027344 425.0321960449219 197.70999145507812 424.24554443359375 197.0699920654297 C 423.45220947265625 196.42332458496094 422.77886962890625 195.7033233642578 422.22552490234375 194.9099884033203 C 421.66552734375 194.12332153320312 421.2388610839844 193.25997924804688 420.945556640625 192.3199920654297 C 420.35888671875 193.78665161132812 419.20220947265625 195.08998107910156 417.47552490234375 196.22998046875 C 415.7488708496094 197.37664794921875 413.828857421875 198.21331787109375 411.7155456542969 198.739990234375 L 411.7155456542969 192.0599822998047 C 413.1221923828125 191.7666473388672 414.39886474609375 191.1933135986328 415.5455322265625 190.33998107910156 C 416.685546875 189.49331665039062 417.66552734375 188.4833221435547 418.48553466796875 187.3099822998047 L 418.48553466796875 168.76998901367188 C 418.48553466796875 165.8966522216797 418.3388671875 163.6099853515625 418.0455322265625 161.9099884033203 C 417.752197265625 160.20999145507812 417.25555419921875 158.96331787109375 416.5555419921875 158.16998291015625 C 415.848876953125 157.38331604003906 414.9822082519531 156.88665771484375 413.9555358886719 156.67999267578125 C 412.935546875 156.4733123779297 411.7221984863281 156.36997985839844 410.3155517578125 156.36997985839844 C 409.022216796875 156.36997985839844 407.8055419921875 156.5333251953125 406.66552734375 156.8599853515625 C 405.5255432128906 157.17999267578125 404.4721984863281 157.5599822998047 403.50555419921875 157.99998474121094 C 402.53887939453125 158.4399871826172 401.6888732910156 158.92330932617188 400.9555358886719 159.44998168945312 C 400.2221984863281 159.97665405273438 399.6788635253906 160.38665771484375 399.3255310058594 160.67999267578125 L 395.37554931640625 154.61997985839844 C 395.9555358886719 153.9733123779297 396.83221435546875 153.31332397460938 398.00555419921875 152.63998413085938 C 399.1788635253906 151.96664428710938 400.52886962890625 151.3666534423828 402.0555419921875 150.83998107910156 C 403.5755310058594 150.30665588378906 405.2288818359375 149.87998962402344 407.0155334472656 149.5599822998047 C 408.8022155761719 149.239990234375 410.6622009277344 149.07998657226562 412.5955505371094 149.07998657226562 C 414.35552978515625 149.07998657226562 416.0688781738281 149.25665283203125 417.73553466796875 149.6099853515625 C 419.40887451171875 149.95664978027344 420.93218994140625 150.53997802734375 422.3055419921875 151.3599853515625 C 423.685546875 152.17999267578125 424.8888854980469 153.2799835205078 425.91552734375 154.6599884033203 C 426.94219970703125 156.0333251953125 427.65887451171875 157.74664306640625 428.0655517578125 159.79998779296875 C 428.4788818359375 161.8533172607422 428.7588806152344 163.91998291015625 428.9055480957031 165.99998474121094 C 429.0522155761719 168.07998657226562 429.12554931640625 170.143310546875 429.12554931640625 172.1899871826172 L 429.12554931640625 183.61997985839844 L 429.12554931640625 184.31997680664062 ZM 455.4061279296875 149.42999267578125 L 456.546142578125 154.4399871826172 L 456.546142578125 198.99998474121094 L 445.9161376953125 198.99998474121094 L 445.9161376953125 149.42999267578125 L 455.4061279296875 149.42999267578125 M 482.8261413574219 154.87998962402344 C 483.8261413574219 155.87332153320312 484.6028137207031 157.0299835205078 485.1561279296875 158.3499755859375 C 485.71612548828125 159.66998291015625 486.1261291503906 161.04664611816406 486.3861389160156 162.47998046875 C 486.6528015136719 163.91331481933594 486.8161315917969 165.36331176757812 486.8761291503906 166.82998657226562 C 486.9294738769531 168.29664611816406 486.9561462402344 169.7333221435547 486.9561462402344 171.13998413085938 L 486.9561462402344 197.239990234375 L 486.9561462402344 198.99998474121094 L 476.23614501953125 198.99998474121094 L 476.23614501953125 172.01998901367188 C 476.23614501953125 170.0266571044922 476.14947509765625 168.11997985839844 475.97613525390625 166.29998779296875 C 475.796142578125 164.4866485595703 475.3861389160156 162.87664794921875 474.74615478515625 161.46998596191406 C 474.0994873046875 160.06332397460938 473.219482421875 158.96331787109375 472.10614013671875 158.16998291015625 C 470.9927978515625 157.38331604003906 469.4394836425781 156.989990234375 467.4461364746094 156.989990234375 C 466.6261291503906 156.989990234375 465.52947998046875 157.11997985839844 464.1561279296875 157.37998962402344 C 462.7761535644531 157.6466522216797 461.44281005859375 158.0733184814453 460.1561279296875 158.6599884033203 L 460.1561279296875 151.88998413085938 C 461.73614501953125 151.06997680664062 463.449462890625 150.3666534423828 465.296142578125 149.7799835205078 C 467.142822265625 149.1933135986328 468.94281005859375 148.89999389648438 470.6961364746094 148.89999389648438 C 473.3361511230469 148.89999389648438 475.56280517578125 149.4433135986328 477.3761291503906 150.5299835205078 C 479.1961364746094 151.6099853515625 481.0128173828125 153.0599822998047 482.8261413574219 154.87998962402344 ZM 519.6522216796875 199.4399871826172 C 516.3655395507812 199.4399871826172 513.4922485351562 198.7233123779297 511.0322265625 197.28997802734375 C 508.5722351074219 195.84999084472656 506.5222473144531 193.9299774169922 504.8822326660156 191.5299835205078 C 503.24224853515625 189.12998962402344 502.042236328125 186.37664794921875 501.2822265625 183.26998901367188 C 500.51556396484375 180.16331481933594 500.1322326660156 176.9099884033203 500.1322326660156 173.50997924804688 C 500.1322326660156 168.9433135986328 500.7622375488281 165.10665893554688 502.0222473144531 161.99998474121094 C 503.2822265625 158.893310546875 504.89556884765625 156.3599853515625 506.86224365234375 154.39999389648438 C 508.8222351074219 152.43331909179688 511.0188903808594 151.03997802734375 513.4522094726562 150.21998596191406 C 515.8855590820312 149.39999389648438 518.272216796875 148.989990234375 520.6122436523438 148.989990234375 C 522.4322509765625 148.989990234375 524.1622314453125 149.1966552734375 525.80224609375 149.6099853515625 C 527.4422607421875 150.0166473388672 528.935546875 150.5999755859375 530.2822265625 151.3599853515625 L 530.2822265625 160.67999267578125 C 529.3422241210938 159.62664794921875 528.2455444335938 158.7766571044922 526.9922485351562 158.12998962402344 C 525.7322387695312 157.4833221435547 524.368896484375 157.1599884033203 522.9022216796875 157.1599884033203 C 521.1422119140625 157.1599884033203 519.5455932617188 157.6166534423828 518.1122436523438 158.5299835205078 C 516.6722412109375 159.4366455078125 515.45556640625 160.64999389648438 514.4622192382812 162.16998291015625 C 513.4688720703125 163.6966552734375 512.7089233398438 165.4866485595703 512.1822509765625 167.53997802734375 C 511.6488952636719 169.58665466308594 511.3822326660156 171.75332641601562 511.3822326660156 174.03997802734375 C 511.3822326660156 176.37998962402344 511.6622314453125 178.58998107910156 512.2222290039062 180.66998291015625 C 512.7755737304688 182.74998474121094 513.5655517578125 184.55331420898438 514.5922241210938 186.07998657226562 C 515.618896484375 187.60665893554688 516.848876953125 188.8233184814453 518.2822265625 189.72998046875 C 519.7222290039062 190.63665771484375 521.3189086914062 191.08998107910156 523.072265625 191.08998107910156 C 524.5388793945312 191.08998107910156 525.85888671875 190.7833251953125 527.0322265625 190.16998291015625 C 528.20556640625 189.54998779296875 529.2888793945312 188.74331665039062 530.2822265625 187.74998474121094 L 530.2822265625 196.88998413085938 C 528.8755493164062 197.59664916992188 527.2655639648438 198.1966552734375 525.4522094726562 198.6899871826172 C 523.6322631835938 199.1899871826172 521.6989135742188 199.4399871826172 519.6522216796875 199.4399871826172 M 544.522216796875 149.42999267578125 L 544.4322509765625 198.99998474121094 C 544.1989135742188 202.5733184814453 543.4822387695312 205.61997985839844 542.2822265625 208.13998413085938 C 541.0822143554688 210.6599884033203 539.542236328125 212.739990234375 537.6622314453125 214.37998962402344 C 535.7888793945312 216.01998901367188 533.6222534179688 217.1933135986328 531.1622314453125 217.8999786376953 C 528.7022094726562 218.59999084472656 526.0655517578125 218.94998168945312 523.2522583007812 218.94998168945312 C 519.9722290039062 218.94998168945312 516.735595703125 218.37998962402344 513.542236328125 217.239990234375 C 510.3489074707031 216.09332275390625 507.695556640625 214.17332458496094 505.5822448730469 211.47998046875 L 511.74224853515625 205.41998291015625 C 512.322265625 206.41331481933594 513.0689086914062 207.2333221435547 513.9822387695312 207.87998962402344 C 514.888916015625 208.51998901367188 515.8255615234375 209.0166473388672 516.792236328125 209.36997985839844 C 517.7589111328125 209.7233123779297 518.7255859375 209.9733123779297 519.6922607421875 210.11997985839844 C 520.6588745117188 210.2666473388672 521.522216796875 210.33998107910156 522.2822265625 210.33998107910156 C 525.9155883789062 210.33998107910156 528.7589111328125 209.2833251953125 530.812255859375 207.16998291015625 C 532.85888671875 205.06332397460938 533.8822631835938 201.45999145507812 533.8822631835938 196.3599853515625 L 533.8822631835938 154.4399871826172 L 535.0322265625 149.42999267578125 L 544.522216796875 149.42999267578125 ZM 569.8264770507812 184.0599822998047 C 569.8264770507812 186.6933135986328 570.3698120117188 188.65664672851562 571.4564819335938 189.94998168945312 C 572.5364990234375 191.2366485595703 574.1031494140625 191.9966583251953 576.156494140625 192.22998046875 L 576.156494140625 199.34999084472656 C 575.9231567382812 199.4099884033203 575.5431518554688 199.4399871826172 575.0164794921875 199.4399871826172 C 573.0231323242188 199.4399871826172 571.1031494140625 199.17665100097656 569.2564697265625 198.6499786376953 C 567.4098510742188 198.12332153320312 565.7831420898438 197.2733154296875 564.37646484375 196.09999084472656 C 562.9698486328125 194.92665100097656 561.8731689453125 193.37332153320312 561.0864868164062 191.4399871826172 C 560.2931518554688 189.50665283203125 559.896484375 187.13331604003906 559.896484375 184.31997680664062 C 559.896484375 181.62664794921875 560.4664916992188 179.29664611816406 561.6065063476562 177.32998657226562 C 562.753173828125 175.36997985839844 564.2198486328125 173.75997924804688 566.0064697265625 172.49998474121094 C 567.7931518554688 171.239990234375 569.829833984375 170.30331420898438 572.1165161132812 169.6899871826172 C 574.396484375 169.07664489746094 576.7098388671875 168.76998901367188 579.0565185546875 168.76998901367188 L 582.926513671875 168.76998901367188 L 582.926513671875 175.00997924804688 L 580.9865112304688 175.00997924804688 C 579.81982421875 175.00997924804688 578.58984375 175.12664794921875 577.2965087890625 175.3599853515625 C 576.0098266601562 175.59332275390625 574.809814453125 176.0333251953125 573.6964721679688 176.67999267578125 C 572.5831298828125 177.31997680664062 571.6598510742188 178.239990234375 570.926513671875 179.4399871826172 C 570.1931762695312 180.6466522216797 569.8264770507812 182.1866455078125 569.8264770507812 184.0599822998047 M 597.16650390625 184.31997680664062 C 597.16650390625 184.79331970214844 597.1931762695312 185.4833221435547 597.2465209960938 186.38998413085938 C 597.3065185546875 187.29664611816406 597.426513671875 188.21998596191406 597.6065063476562 189.1599884033203 C 597.7798461914062 190.09332275390625 598.0565185546875 190.9433135986328 598.4365234375 191.70999145507812 C 598.8164672851562 192.46998596191406 599.329833984375 192.96664428710938 599.9765014648438 193.19998168945312 L 597.16650390625 199.08998107910156 C 596.3998413085938 199.08998107910156 595.5931396484375 198.91331481933594 594.7465209960938 198.5599822998047 C 593.8931884765625 198.20664978027344 593.0731811523438 197.70999145507812 592.2864990234375 197.0699920654297 C 591.4931640625 196.42332458496094 590.81982421875 195.7033233642578 590.2664794921875 194.9099884033203 C 589.7064819335938 194.12332153320312 589.2798461914062 193.25997924804688 588.9865112304688 192.3199920654297 C 588.3998413085938 193.78665161132812 587.2431640625 195.08998107910156 585.5164794921875 196.22998046875 C 583.7898559570312 197.37664794921875 581.8698120117188 198.21331787109375 579.7564697265625 198.739990234375 L 579.7564697265625 192.0599822998047 C 581.1631469726562 191.7666473388672 582.4398193359375 191.1933135986328 583.5864868164062 190.33998107910156 C 584.7265014648438 189.49331665039062 585.7064819335938 188.4833221435547 586.5264892578125 187.3099822998047 L 586.5264892578125 168.76998901367188 C 586.5264892578125 165.8966522216797 586.3798217773438 163.6099853515625 586.0864868164062 161.9099884033203 C 585.7931518554688 160.20999145507812 585.2965087890625 158.96331787109375 584.5964965820312 158.16998291015625 C 583.8898315429688 157.38331604003906 583.0231323242188 156.88665771484375 581.9965209960938 156.67999267578125 C 580.9765014648438 156.4733123779297 579.76318359375 156.36997985839844 578.3565063476562 156.36997985839844 C 577.0631713867188 156.36997985839844 575.8464965820312 156.5333251953125 574.7064819335938 156.8599853515625 C 573.5664672851562 157.17999267578125 572.51318359375 157.5599822998047 571.5465087890625 157.99998474121094 C 570.579833984375 158.4399871826172 569.7298583984375 158.92330932617188 568.9965209960938 159.44998168945312 C 568.26318359375 159.97665405273438 567.7198486328125 160.38665771484375 567.3665161132812 160.67999267578125 L 563.41650390625 154.61997985839844 C 563.9965209960938 153.9733123779297 564.8731689453125 153.31332397460938 566.0465087890625 152.63998413085938 C 567.2198486328125 151.96664428710938 568.56982421875 151.3666534423828 570.0964965820312 150.83998107910156 C 571.6165161132812 150.30665588378906 573.2698364257812 149.87998962402344 575.0565185546875 149.5599822998047 C 576.8431396484375 149.239990234375 578.7031860351562 149.07998657226562 580.636474609375 149.07998657226562 C 582.396484375 149.07998657226562 584.1098022460938 149.25665283203125 585.7764892578125 149.6099853515625 C 587.4498291015625 149.95664978027344 588.97314453125 150.53997802734375 590.3464965820312 151.3599853515625 C 591.7265014648438 152.17999267578125 592.9298095703125 153.2799835205078 593.9564819335938 154.6599884033203 C 594.983154296875 156.0333251953125 595.6998291015625 157.74664306640625 596.1065063476562 159.79998779296875 C 596.5198364257812 161.8533172607422 596.7998046875 163.91998291015625 596.9464721679688 165.99998474121094 C 597.0931396484375 168.07998657226562 597.16650390625 170.143310546875 597.16650390625 172.1899871826172 L 597.16650390625 183.61997985839844 L 597.16650390625 184.31997680664062 ZM 661.7484741210938 149.42999267578125 C 658.5285034179688 158.04331970214844 655.658447265625 165.67665100097656 653.1384887695312 172.32998657226562 C 650.6184692382812 178.97665405273438 648.4218139648438 184.80665588378906 646.5484619140625 189.81997680664062 C 644.66845703125 194.82664489746094 643.0118408203125 199.0599822998047 641.5784912109375 202.51998901367188 C 640.1451416015625 205.9733123779297 638.8284912109375 208.85665893554688 637.6284790039062 211.16998291015625 C 636.4218139648438 213.4833221435547 635.2918090820312 215.29998779296875 634.2384643554688 216.61997985839844 C 633.1851196289062 217.9399871826172 632.101806640625 218.94998168945312 630.9884643554688 219.6499786376953 C 629.8751220703125 220.35665893554688 628.6585083007812 220.7833251953125 627.3385009765625 220.92999267578125 C 626.0184936523438 221.07664489746094 624.5118408203125 221.1499786376953 622.8184814453125 221.1499786376953 C 622.28515625 221.1499786376953 621.66845703125 221.07664489746094 620.968505859375 220.92999267578125 C 620.2684936523438 220.7833251953125 619.5784912109375 220.60665893554688 618.8984985351562 220.3999786376953 C 618.2251586914062 220.1933135986328 617.6251220703125 219.989990234375 617.0984497070312 219.78997802734375 C 616.5718383789062 219.58331298828125 616.2218017578125 219.44998168945312 616.0484619140625 219.38998413085938 C 616.2817993164062 218.33665466308594 616.51513671875 217.33998107910156 616.7484741210938 216.3999786376953 C 616.9218139648438 215.57998657226562 617.11181640625 214.80331420898438 617.3184814453125 214.06997680664062 C 617.525146484375 213.33665466308594 617.6884765625 212.82664489746094 617.8084716796875 212.53997802734375 C 618.275146484375 212.53997802734375 618.9918212890625 212.68331909179688 619.95849609375 212.96998596191406 C 620.9251708984375 213.26332092285156 621.6417846679688 213.4099884033203 622.1084594726562 213.4099884033203 C 623.0484619140625 213.4099884033203 623.8851318359375 213.3666534423828 624.6184692382812 213.2799835205078 C 625.351806640625 213.1933135986328 626.0084838867188 212.92999267578125 626.5885009765625 212.489990234375 C 627.1751708984375 212.04998779296875 627.7318115234375 211.40664672851562 628.2584838867188 210.5599822998047 C 628.7918090820312 209.70664978027344 629.3784790039062 208.489990234375 630.0184936523438 206.9099884033203 L 633.3584594726562 198.99998474121094 L 651.0285034179688 149.42999267578125 L 661.7484741210938 149.42999267578125 M 631.5184936523438 194.33998107910156 L 613.0584716796875 149.42999267578125 L 623.6884765625 149.42999267578125 L 636.3484497070312 182.739990234375 L 635.1184692382812 185.72998046875 L 631.5184936523438 194.33998107910156 Z" transform="matrix(1, 0, 0, 1, -102.35697174072266, -159.48643493652344)" style="fill: rgb(0, 51, 255); white-space: pre; color: rgb(51, 51, 51); fill-opacity: 0.5;"/></svg>