<?xml version="1.0" encoding="utf-8"?>
<svg id="master-artboard" viewBox="0 0 612.0892944335938 215.8932647705078" version="1.1" xmlns="http://www.w3.org/2000/svg" x="0px" y="0px" style="enable-background:new 0 0 1400 980;" width="612.0892944335938px" height="215.8932647705078px"><defs><style id="ee-google-fonts">@import url(https://fonts.googleapis.com/css?family=Aldrich:400);</style></defs><rect id="ee-background" x="0" y="0" width="612.0892944335938" height="215.8932647705078" style="fill: white; fill-opacity: 0; pointer-events: none;"/>








































<path d="M 223.1826171875 180.01998901367188 L 192.20260620117188 180.01998901367188 L 192.20260620117188 190.33998107910156 L 223.1826171875 190.33998107910156 L 223.1826171875 198.99998474121094 L 192.20260620117188 198.99998474121094 C 191.02928161621094 198.99998474121094 189.91595458984375 198.7733154296875 188.86260986328125 198.3199920654297 C 187.8092803955078 197.8666534423828 186.89260864257812 197.24998474121094 186.11260986328125 196.46998596191406 C 185.3392791748047 195.6966552734375 184.7259521484375 194.7833251953125 184.27261352539062 193.72998046875 C 183.81927490234375 192.66998291015625 183.59262084960938 191.53997802734375 183.59262084960938 190.33998107910156 L 183.59262084960938 160.8599853515625 C 183.59262084960938 159.6533203125 183.81927490234375 158.5233154296875 184.27261352539062 157.46998596191406 C 184.7259521484375 156.41665649414062 185.3392791748047 155.50332641601562 186.11260986328125 154.72998046875 C 186.89260864257812 153.94998168945312 187.8092803955078 153.33331298828125 188.86260986328125 152.87998962402344 C 189.91595458984375 152.42665100097656 191.02928161621094 152.19998168945312 192.20260620117188 152.19998168945312 L 214.52261352539062 152.19998168945312 C 215.72927856445312 152.19998168945312 216.85928344726562 152.42665100097656 217.91261291503906 152.87998962402344 C 218.9659423828125 153.33331298828125 219.8792724609375 153.94998168945312 220.65261840820312 154.72998046875 C 221.4326171875 155.50332641601562 222.04928588867188 156.41665649414062 222.5026092529297 157.46998596191406 C 222.95594787597656 158.5233154296875 223.1826171875 159.6533203125 223.1826171875 160.8599853515625 L 223.1826171875 180.01998901367188 M 192.20260620117188 160.8599853515625 L 192.20260620117188 171.3599853515625 L 214.52261352539062 171.3599853515625 L 214.52261352539062 160.8599853515625 L 192.20260620117188 160.8599853515625 ZM 279.49920654296875 166.12998962402344 C 280.8192138671875 166.53665161132812 282.0191955566406 167.12332153320312 283.0992126464844 167.88998413085938 C 284.18585205078125 168.6499786376953 285.10919189453125 169.62332153320312 285.86920166015625 170.8099822998047 C 286.6358642578125 171.99664306640625 287.2225341796875 173.3966522216797 287.62921142578125 175.00997924804688 C 288.04254150390625 176.6166534423828 288.24920654296875 178.45999145507812 288.24920654296875 180.53997802734375 L 288.24920654296875 183.70999145507812 C 288.24920654296875 193.9033203125 283.1492004394531 198.99998474121094 272.94921875 198.99998474121094 L 238.45919799804688 198.99998474121094 L 238.45919799804688 135.97998046875 L 271.1492004394531 135.97998046875 C 281.342529296875 135.97998046875 286.439208984375 141.09332275390625 286.439208984375 151.31997680664062 L 286.439208984375 152.45999145507812 C 286.439208984375 156.00665283203125 285.8758544921875 158.89999389648438 284.74920654296875 161.13998413085938 C 283.6225280761719 163.37998962402344 281.8725280761719 165.04331970214844 279.49920654296875 166.12998962402344 M 247.28919982910156 171.5299835205078 L 247.28919982910156 190.16998291015625 L 272.689208984375 190.16998291015625 C 275.0625305175781 190.16998291015625 276.77587890625 189.61331176757812 277.8291931152344 188.49998474121094 C 278.8825378417969 187.38665771484375 279.4092102050781 185.643310546875 279.4092102050781 183.26998901367188 L 279.4092102050781 178.38998413085938 C 279.4092102050781 175.989990234375 278.8825378417969 174.24664306640625 277.8291931152344 173.1599884033203 C 276.77587890625 172.0733184814453 275.0625305175781 171.5299835205078 272.689208984375 171.5299835205078 L 247.28919982910156 171.5299835205078 M 247.28919982910156 144.81997680664062 L 247.28919982910156 162.74998474121094 L 271.49920654296875 162.74998474121094 C 273.6658630371094 162.65664672851562 275.2258605957031 162.06332397460938 276.17919921875 160.96998596191406 C 277.1325378417969 159.86997985839844 277.60919189453125 158.17665100097656 277.60919189453125 155.88998413085938 L 277.60919189453125 151.75997924804688 C 277.60919189453125 149.3599853515625 277.08251953125 147.6033172607422 276.0292053222656 146.489990234375 C 274.9758605957031 145.37664794921875 273.2625427246094 144.81997680664062 270.8891906738281 144.81997680664062 L 247.28919982910156 144.81997680664062 ZM 300.86419677734375 178.56997680664062 C 300.86419677734375 177.36331176757812 301.09088134765625 176.239990234375 301.5442199707031 175.19998168945312 C 301.9975280761719 174.1599884033203 302.6108703613281 173.24664306640625 303.38421630859375 172.45999145507812 C 304.1642150878906 171.66665649414062 305.08087158203125 171.04331970214844 306.13421630859375 170.58998107910156 C 307.1875305175781 170.13665771484375 308.3008728027344 169.9099884033203 309.4742126464844 169.9099884033203 L 331.794189453125 169.9099884033203 L 331.794189453125 160.8599853515625 L 303.5442199707031 160.8599853515625 L 303.5442199707031 152.19998168945312 L 331.794189453125 152.19998168945312 C 333.0008850097656 152.19998168945312 334.130859375 152.42665100097656 335.1842041015625 152.87998962402344 C 336.237548828125 153.33331298828125 337.15087890625 153.94998168945312 337.9241943359375 154.72998046875 C 338.7041931152344 155.50332641601562 339.32086181640625 156.41665649414062 339.7742004394531 157.46998596191406 C 340.2275390625 158.5233154296875 340.4541931152344 159.6533203125 340.4541931152344 160.8599853515625 L 340.4541931152344 198.99998474121094 L 331.794189453125 198.99998474121094 L 331.794189453125 191.08998107910156 C 331.7075500488281 192.17665100097656 331.41754150390625 193.2033233642578 330.9241943359375 194.16998291015625 C 330.4241943359375 195.13665771484375 329.7842102050781 195.97665405273438 329.00421142578125 196.6899871826172 C 328.2308654785156 197.4099884033203 327.3475341796875 197.9733123779297 326.3542175292969 198.37998962402344 C 325.3542175292969 198.79331970214844 324.29754638671875 198.99998474121094 323.1842041015625 198.99998474121094 L 309.4742126464844 198.99998474121094 C 308.3008728027344 198.99998474121094 307.1875305175781 198.7733154296875 306.13421630859375 198.3199920654297 C 305.08087158203125 197.8666534423828 304.1642150878906 197.24998474121094 303.38421630859375 196.46998596191406 C 302.6108703613281 195.6966552734375 301.9975280761719 194.7833251953125 301.5442199707031 193.72998046875 C 301.09088134765625 192.66998291015625 300.86419677734375 191.53997802734375 300.86419677734375 190.33998107910156 L 300.86419677734375 178.56997680664062 M 309.4742126464844 190.33998107910156 L 331.794189453125 190.33998107910156 L 331.794189453125 178.56997680664062 L 309.4742126464844 178.56997680664062 L 309.4742126464844 190.33998107910156 ZM 363.47943115234375 160.8599853515625 L 363.47943115234375 198.99998474121094 L 354.8694152832031 198.99998474121094 L 354.8694152832031 152.19998168945312 L 363.47943115234375 152.19998168945312 L 363.47943115234375 160.45999145507812 C 363.5394287109375 159.31997680664062 363.8027648925781 158.24331665039062 364.2694091796875 157.22998046875 C 364.736083984375 156.21664428710938 365.35943603515625 155.33665466308594 366.1394348144531 154.58998107910156 C 366.9127502441406 153.84332275390625 367.812744140625 153.25997924804688 368.83941650390625 152.83998107910156 C 369.8660888671875 152.41331481933594 370.9660949707031 152.19998168945312 372.1394348144531 152.19998168945312 L 381.3194274902344 152.19998168945312 C 382.5194091796875 152.19998168945312 383.6394348144531 152.42665100097656 384.6794128417969 152.87998962402344 C 385.71942138671875 153.33331298828125 386.6360778808594 153.94998168945312 387.4294128417969 154.72998046875 C 388.2227478027344 155.50332641601562 388.8460998535156 156.41665649414062 389.2994384765625 157.46998596191406 C 389.75274658203125 158.5233154296875 389.97943115234375 159.6533203125 389.97943115234375 160.8599853515625 L 389.97943115234375 168.76998901367188 L 381.3194274902344 168.76998901367188 L 381.3194274902344 160.8599853515625 L 363.47943115234375 160.8599853515625 ZM 400.7477722167969 178.56997680664062 C 400.7477722167969 177.36331176757812 400.9744567871094 176.239990234375 401.42779541015625 175.19998168945312 C 401.881103515625 174.1599884033203 402.49444580078125 173.24664306640625 403.2677917480469 172.45999145507812 C 404.04779052734375 171.66665649414062 404.9644470214844 171.04331970214844 406.0177917480469 170.58998107910156 C 407.07110595703125 170.13665771484375 408.1844482421875 169.9099884033203 409.3577880859375 169.9099884033203 L 431.67779541015625 169.9099884033203 L 431.67779541015625 160.8599853515625 L 403.42779541015625 160.8599853515625 L 403.42779541015625 152.19998168945312 L 431.67779541015625 152.19998168945312 C 432.88446044921875 152.19998168945312 434.0144348144531 152.42665100097656 435.0677795410156 152.87998962402344 C 436.1211242675781 153.33331298828125 437.0344543457031 153.94998168945312 437.8077697753906 154.72998046875 C 438.5877685546875 155.50332641601562 439.2044372558594 156.41665649414062 439.65777587890625 157.46998596191406 C 440.1111145019531 158.5233154296875 440.3377685546875 159.6533203125 440.3377685546875 160.8599853515625 L 440.3377685546875 198.99998474121094 L 431.67779541015625 198.99998474121094 L 431.67779541015625 191.08998107910156 C 431.59112548828125 192.17665100097656 431.3011169433594 193.2033233642578 430.8077697753906 194.16998291015625 C 430.3077697753906 195.13665771484375 429.66778564453125 195.97665405273438 428.8877868652344 196.6899871826172 C 428.11444091796875 197.4099884033203 427.2311096191406 197.9733123779297 426.23779296875 198.37998962402344 C 425.23779296875 198.79331970214844 424.1811218261719 198.99998474121094 423.0677795410156 198.99998474121094 L 409.3577880859375 198.99998474121094 C 408.1844482421875 198.99998474121094 407.07110595703125 198.7733154296875 406.0177917480469 198.3199920654297 C 404.9644470214844 197.8666534423828 404.04779052734375 197.24998474121094 403.2677917480469 196.46998596191406 C 402.49444580078125 195.6966552734375 401.881103515625 194.7833251953125 401.42779541015625 193.72998046875 C 400.9744567871094 192.66998291015625 400.7477722167969 191.53997802734375 400.7477722167969 190.33998107910156 L 400.7477722167969 178.56997680664062 M 409.3577880859375 190.33998107910156 L 431.67779541015625 190.33998107910156 L 431.67779541015625 178.56997680664062 L 409.3577880859375 178.56997680664062 L 409.3577880859375 190.33998107910156 ZM 496.1243896484375 198.99998474121094 L 487.4743957519531 198.99998474121094 L 487.4743957519531 160.8599853515625 L 463.3443908691406 160.8599853515625 L 463.3443908691406 198.99998474121094 L 454.734375 198.99998474121094 L 454.734375 152.19998168945312 L 463.3443908691406 152.19998168945312 L 463.3443908691406 160.45999145507812 C 463.4043884277344 159.31997680664062 463.667724609375 158.24331665039062 464.1343994140625 157.22998046875 C 464.6010437011719 156.21664428710938 465.2243957519531 155.33665466308594 466.00439453125 154.58998107910156 C 466.7777099609375 153.84332275390625 467.6777038574219 153.25997924804688 468.7043762207031 152.83998107910156 C 469.7310485839844 152.41331481933594 470.8310546875 152.19998168945312 472.00439453125 152.19998168945312 L 487.4743957519531 152.19998168945312 C 488.67437744140625 152.19998168945312 489.8010559082031 152.42665100097656 490.8543701171875 152.87998962402344 C 491.90771484375 153.33331298828125 492.8243713378906 153.94998168945312 493.6043701171875 154.72998046875 C 494.3777160644531 155.50332641601562 494.9910583496094 156.41665649414062 495.44439697265625 157.46998596191406 C 495.897705078125 158.5233154296875 496.1243896484375 159.6533203125 496.1243896484375 160.8599853515625 L 496.1243896484375 198.99998474121094 ZM 510.54345703125 160.8599853515625 C 510.54345703125 159.6533203125 510.7701416015625 158.5233154296875 511.2234802246094 157.46998596191406 C 511.6767883300781 156.41665649414062 512.2901611328125 155.50332641601562 513.0634765625 154.72998046875 C 513.8434448242188 153.94998168945312 514.7601318359375 153.33331298828125 515.8134765625 152.87998962402344 C 516.8668212890625 152.42665100097656 517.9801025390625 152.19998168945312 519.1534423828125 152.19998168945312 L 534.6634521484375 152.19998168945312 C 535.8101196289062 152.19998168945312 536.8934936523438 152.41331481933594 537.9134521484375 152.83998107910156 C 538.9401245117188 153.25997924804688 539.8434448242188 153.84332275390625 540.6234741210938 154.58998107910156 C 541.3967895507812 155.33665466308594 542.0267944335938 156.21664428710938 542.5134887695312 157.22998046875 C 542.9934692382812 158.24331665039062 543.2501220703125 159.31997680664062 543.283447265625 160.45999145507812 L 543.283447265625 152.19998168945312 L 551.9334716796875 152.19998168945312 L 551.9334716796875 209.239990234375 C 551.9334716796875 210.4399871826172 551.706787109375 211.566650390625 551.2534790039062 212.61997985839844 C 550.8001098632812 213.67999267578125 550.186767578125 214.59664916992188 549.4134521484375 215.36997985839844 C 548.6334838867188 216.143310546875 547.716796875 216.75997924804688 546.6634521484375 217.21998596191406 C 545.610107421875 217.67332458496094 544.4834594726562 217.8999786376953 543.283447265625 217.8999786376953 L 515.9434814453125 217.8999786376953 L 515.9434814453125 209.239990234375 L 543.283447265625 209.239990234375 L 543.283447265625 197.19998168945312 L 519.1534423828125 197.19998168945312 C 517.9801025390625 197.19998168945312 516.8668212890625 196.9733123779297 515.8134765625 196.51998901367188 C 514.7601318359375 196.066650390625 513.8434448242188 195.44998168945312 513.0634765625 194.66998291015625 C 512.2901611328125 193.8966522216797 511.6767883300781 192.97998046875 511.2234802246094 191.91998291015625 C 510.7701416015625 190.8666534423828 510.54345703125 189.739990234375 510.54345703125 188.53997802734375 L 510.54345703125 160.8599853515625 M 543.283447265625 188.53997802734375 L 543.283447265625 160.8599853515625 L 519.1534423828125 160.8599853515625 L 519.1534423828125 188.53997802734375 L 543.283447265625 188.53997802734375 ZM 566.3525390625 178.56997680664062 C 566.3525390625 177.36331176757812 566.5791625976562 176.239990234375 567.0325317382812 175.19998168945312 C 567.48583984375 174.1599884033203 568.0991821289062 173.24664306640625 568.8724975585938 172.45999145507812 C 569.6525268554688 171.66665649414062 570.5692138671875 171.04331970214844 571.6224975585938 170.58998107910156 C 572.6758422851562 170.13665771484375 573.7891845703125 169.9099884033203 574.9625244140625 169.9099884033203 L 597.2825317382812 169.9099884033203 L 597.2825317382812 160.8599853515625 L 569.0325317382812 160.8599853515625 L 569.0325317382812 152.19998168945312 L 597.2825317382812 152.19998168945312 C 598.4891967773438 152.19998168945312 599.6192016601562 152.42665100097656 600.6724853515625 152.87998962402344 C 601.725830078125 153.33331298828125 602.63916015625 153.94998168945312 603.4125366210938 154.72998046875 C 604.1925048828125 155.50332641601562 604.8092041015625 156.41665649414062 605.2625122070312 157.46998596191406 C 605.7158203125 158.5233154296875 605.9425048828125 159.6533203125 605.9425048828125 160.8599853515625 L 605.9425048828125 198.99998474121094 L 597.2825317382812 198.99998474121094 L 597.2825317382812 191.08998107910156 C 597.1958618164062 192.17665100097656 596.9058227539062 193.2033233642578 596.4125366210938 194.16998291015625 C 595.9125366210938 195.13665771484375 595.2725219726562 195.97665405273438 594.4924926757812 196.6899871826172 C 593.7191772460938 197.4099884033203 592.8358764648438 197.9733123779297 591.842529296875 198.37998962402344 C 590.842529296875 198.79331970214844 589.7858276367188 198.99998474121094 588.6725463867188 198.99998474121094 L 574.9625244140625 198.99998474121094 C 573.7891845703125 198.99998474121094 572.6758422851562 198.7733154296875 571.6224975585938 198.3199920654297 C 570.5692138671875 197.8666534423828 569.6525268554688 197.24998474121094 568.8724975585938 196.46998596191406 C 568.0991821289062 195.6966552734375 567.48583984375 194.7833251953125 567.0325317382812 193.72998046875 C 566.5791625976562 192.66998291015625 566.3525390625 191.53997802734375 566.3525390625 190.33998107910156 L 566.3525390625 178.56997680664062 M 574.9625244140625 190.33998107910156 L 597.2825317382812 190.33998107910156 L 597.2825317382812 178.56997680664062 L 574.9625244140625 178.56997680664062 L 574.9625244140625 190.33998107910156 ZM 623.5177001953125 217.8999786376953 L 633.3176879882812 194.7799835205078 L 614.9476928710938 152.19998168945312 L 624.0477294921875 152.19998168945312 L 637.7177124023438 184.4099884033203 L 651.377685546875 152.19998168945312 L 660.4777221679688 152.19998168945312 L 632.127685546875 217.8999786376953 L 623.5177001953125 217.8999786376953 Z" transform="matrix(1, 0, 0, 1, -102.35697174072266, -159.48643493652344)" style="fill: rgb(0, 51, 255); white-space: pre; color: rgb(0, 51, 255); fill-opacity: 0.5;"/></svg>