<?xml version="1.0" encoding="utf-8"?>
<svg id="master-artboard" viewBox="0 0 612.0892944335938 215.8932647705078" version="1.1" xmlns="http://www.w3.org/2000/svg" x="0px" y="0px" style="enable-background:new 0 0 1400 980;" width="612.0892944335938px" height="215.8932647705078px"><defs><style id="ee-google-fonts">@import url(https://fonts.googleapis.com/css?family=ABeeZee:400,400italic);</style></defs><rect id="ee-background" x="0" y="0" width="612.0892944335938" height="215.8932647705078" style="fill: white; fill-opacity: 0; pointer-events: none;"/>








































<path d="M 188.71261596679688 178.92999267578125 C 189.2526092529297 183.3099822998047 190.78260803222656 186.72998046875 193.3026123046875 189.1899871826172 C 195.82261657714844 191.6499786376953 199.15261840820312 192.87998962402344 203.29261779785156 192.87998962402344 C 205.99261474609375 192.87998962402344 208.422607421875 192.59664916992188 210.58261108398438 192.0299835205078 C 212.74261474609375 191.45664978027344 214.8126220703125 190.71998596191406 216.79261779785156 189.81997680664062 L 218.6826171875 196.74998474121094 C 216.52261352539062 197.76998901367188 214.09262084960938 198.57998657226562 211.39260864257812 199.1799774169922 C 208.69261169433594 199.7799835205078 205.66261291503906 200.07998657226562 202.3026123046875 200.07998657226562 C 198.94261169433594 200.07998657226562 195.91261291503906 199.5266571044922 193.21261596679688 198.41998291015625 C 190.5126190185547 197.30665588378906 188.2192840576172 195.71664428710938 186.33261108398438 193.6499786376953 C 184.4392852783203 191.57664489746094 182.9826202392578 189.0266571044922 181.96261596679688 185.99998474121094 C 180.94261169433594 182.96664428710938 180.4326171875 179.49998474121094 180.4326171875 175.59999084472656 C 180.4326171875 172.11997985839844 180.94261169433594 168.87998962402344 181.96261596679688 165.87998962402344 C 182.9826202392578 162.87998962402344 184.422607421875 160.2833251953125 186.28260803222656 158.08998107910156 C 188.14260864257812 155.9033203125 190.36260986328125 154.1966552734375 192.94261169433594 152.96998596191406 C 195.52261352539062 151.7366485595703 198.40261840820312 151.11997985839844 201.58261108398438 151.11997985839844 C 204.94261169433594 151.11997985839844 207.8826141357422 151.6899871826172 210.40261840820312 152.82998657226562 C 212.922607421875 153.96998596191406 215.02261352539062 155.5299835205078 216.70260620117188 157.50997924804688 C 218.3826141357422 159.489990234375 219.64260864257812 161.79998779296875 220.48260498046875 164.4399871826172 C 221.32261657714844 167.07998657226562 221.74261474609375 169.86997985839844 221.74261474609375 172.8099822998047 C 221.74261474609375 174.9099884033203 221.65261840820312 176.94998168945312 221.4726104736328 178.92999267578125 L 188.71261596679688 178.92999267578125 M 201.40261840820312 158.13998413085938 C 197.86260986328125 158.13998413085938 194.9692840576172 159.33998107910156 192.7226104736328 161.739990234375 C 190.4692840576172 164.13998413085938 189.1026153564453 167.67999267578125 188.62261962890625 172.3599853515625 L 214.27261352539062 172.3599853515625 C 214.27261352539062 167.79998779296875 213.1326141357422 164.28997802734375 210.8526153564453 161.82998657226562 C 208.57261657714844 159.36997985839844 205.422607421875 158.13998413085938 201.40261840820312 158.13998413085938 ZM 233.42947387695312 136.17999267578125 C 235.5294647216797 135.9399871826172 238.122802734375 135.72998046875 241.20947265625 135.54998779296875 C 244.30279541015625 135.36997985839844 247.88946533203125 135.2799835205078 251.96946716308594 135.2799835205078 C 259.70947265625 135.2799835205078 265.6328125 136.71998596191406 269.7394714355469 139.5999755859375 C 273.8528137207031 142.47998046875 275.90948486328125 146.4399871826172 275.90948486328125 151.47998046875 C 275.90948486328125 154.83998107910156 275.0394592285156 157.6599884033203 273.2994689941406 159.9399871826172 C 271.5594787597656 162.21998596191406 268.9794616699219 164.1099853515625 265.5594787597656 165.6099853515625 C 269.63946533203125 167.04998779296875 272.7294616699219 169.0299835205078 274.8294677734375 171.54998779296875 C 276.9294738769531 174.06997680664062 277.9794616699219 177.21998596191406 277.9794616699219 180.99998474121094 C 277.9794616699219 186.75997924804688 275.7461242675781 191.3199920654297 271.27947998046875 194.6799774169922 C 266.8061218261719 198.03997802734375 260.24945068359375 199.71998596191406 251.60946655273438 199.71998596191406 C 247.949462890625 199.71998596191406 244.48280334472656 199.643310546875 241.20947265625 199.489990234375 C 237.9427947998047 199.34332275390625 235.34947204589844 199.11997985839844 233.42947387695312 198.8199920654297 L 233.42947387695312 136.17999267578125 M 252.23947143554688 192.6099853515625 C 257.63946533203125 192.6099853515625 261.82281494140625 191.6499786376953 264.7894592285156 189.72998046875 C 267.7628173828125 187.8099822998047 269.24945068359375 185.01998901367188 269.24945068359375 181.3599853515625 C 269.24945068359375 177.75997924804688 267.77947998046875 174.9399871826172 264.8394775390625 172.8999786376953 C 261.89947509765625 170.8599853515625 257.699462890625 169.83998107910156 252.23947143554688 169.83998107910156 L 241.97946166992188 169.83998107910156 L 241.97946166992188 192.0699920654297 C 245.09947204589844 192.4299774169922 248.51947021484375 192.6099853515625 252.23947143554688 192.6099853515625 M 251.8794708251953 163.17999267578125 C 256.6194763183594 163.17999267578125 260.3828125 162.20664978027344 263.1694641113281 160.25997924804688 C 265.9627990722656 158.30665588378906 267.3594665527344 155.739990234375 267.3594665527344 152.5599822998047 C 267.3594665527344 149.13998413085938 265.9794616699219 146.5599822998047 263.219482421875 144.81997680664062 C 260.45947265625 143.07998657226562 256.6794738769531 142.20999145507812 251.8794708251953 142.20999145507812 C 249.89947509765625 142.20999145507812 248.09947204589844 142.25332641601562 246.47946166992188 142.33998107910156 C 244.85946655273438 142.43331909179688 243.35946655273438 142.53997802734375 241.97946166992188 142.6599884033203 L 241.97946166992188 163.17999267578125 L 251.8794708251953 163.17999267578125 ZM 286.0811767578125 175.86997985839844 C 286.0811767578125 172.38998413085938 286.6211853027344 169.13665771484375 287.7012023925781 166.1099853515625 C 288.78118896484375 163.07666015625 290.2945251464844 160.44998168945312 292.2411804199219 158.22998046875 C 294.19451904296875 156.00997924804688 296.5345153808594 154.26998901367188 299.2611999511719 153.00997924804688 C 301.9945068359375 151.74998474121094 304.981201171875 151.11997985839844 308.22119140625 151.11997985839844 C 310.92120361328125 151.11997985839844 313.3645324707031 151.58665466308594 315.5511779785156 152.51998901367188 C 317.7445068359375 153.4466552734375 319.65118408203125 154.5999755859375 321.27117919921875 155.97998046875 L 321.27117919921875 152.19998168945312 L 328.65118408203125 152.19998168945312 L 328.65118408203125 187.6599884033203 C 328.65118408203125 189.9399871826172 329.20452880859375 191.42665100097656 330.3111877441406 192.11997985839844 C 331.4245300292969 192.80665588378906 332.64117431640625 193.1499786376953 333.961181640625 193.1499786376953 L 332.2511901855469 199.44998168945312 C 326.4911804199219 199.44998168945312 323.0111999511719 197.1099853515625 321.8111877441406 192.4299774169922 C 321.0911865234375 193.38998413085938 320.2645263671875 194.33665466308594 319.3311767578125 195.26998901367188 C 318.4045104980469 196.1966552734375 317.3411865234375 197.01998901367188 316.14117431640625 197.739990234375 C 314.9411926269531 198.45999145507812 313.5911865234375 199.0299835205078 312.0911865234375 199.44998168945312 C 310.5911865234375 199.86997985839844 308.9411926269531 200.07998657226562 307.14117431640625 200.07998657226562 C 304.2012023925781 200.07998657226562 301.4578552246094 199.50997924804688 298.91119384765625 198.36997985839844 C 296.35784912109375 197.22998046875 294.134521484375 195.6099853515625 292.2411804199219 193.50997924804688 C 290.3545227050781 191.4099884033203 288.8545227050781 188.87664794921875 287.7411804199219 185.9099884033203 C 286.634521484375 182.9366455078125 286.0811767578125 179.58998107910156 286.0811767578125 175.86997985839844 M 308.9411926269531 192.87998962402344 C 311.22119140625 192.87998962402344 313.3811950683594 192.33998107910156 315.42120361328125 191.25997924804688 C 317.461181640625 190.17999267578125 319.17120361328125 188.76998901367188 320.5511779785156 187.0299835205078 L 320.5511779785156 161.91998291015625 C 318.9311828613281 160.7799835205078 317.14453125 159.8666534423828 315.1911926269531 159.17999267578125 C 313.2445068359375 158.4866485595703 311.1911926269531 158.13998413085938 309.03118896484375 158.13998413085938 C 306.8711853027344 158.13998413085938 304.89117431640625 158.5599822998047 303.0911865234375 159.39999389648438 C 301.29119873046875 160.239990234375 299.74786376953125 161.42330932617188 298.461181640625 162.94998168945312 C 297.1678466796875 164.4833221435547 296.16119384765625 166.32998657226562 295.4411926269531 168.489990234375 C 294.72119140625 170.6499786376953 294.3611755371094 173.01998901367188 294.3611755371094 175.59999084472656 C 294.3611755371094 178.11997985839844 294.72119140625 180.4433135986328 295.4411926269531 182.56997680664062 C 296.16119384765625 184.7033233642578 297.1811828613281 186.53665161132812 298.5011901855469 188.06997680664062 C 299.8211975097656 189.59664916992188 301.36785888671875 190.7799835205078 303.14117431640625 191.61997985839844 C 304.9078674316406 192.45999145507812 306.8411865234375 192.87998962402344 308.9411926269531 192.87998962402344 ZM 370.12274169921875 160.0299835205078 C 368.9827575683594 159.54998779296875 367.63275146484375 159.3099822998047 366.07275390625 159.3099822998047 C 364.39276123046875 159.3099822998047 362.7594299316406 159.66998291015625 361.1727600097656 160.38998413085938 C 359.57940673828125 161.1099853515625 358.16607666015625 162.1899871826172 356.9327392578125 163.62998962402344 C 355.7060852050781 165.06997680664062 354.71942138671875 166.91665649414062 353.9727478027344 169.16998291015625 C 353.21942138671875 171.41665649414062 352.8427429199219 174.06997680664062 352.8427429199219 177.12998962402344 L 352.8427429199219 198.99998474121094 L 344.7427673339844 198.99998474121094 L 344.7427673339844 152.19998168945312 L 352.57275390625 152.19998168945312 L 352.57275390625 162.36997985839844 C 353.1127624511719 160.92999267578125 353.832763671875 159.51998901367188 354.7327575683594 158.13998413085938 C 355.63275146484375 156.75997924804688 356.6960754394531 155.5599822998047 357.9227600097656 154.53997802734375 C 359.1560974121094 153.51998901367188 360.582763671875 152.6966552734375 362.2027587890625 152.06997680664062 C 363.82275390625 151.4366455078125 365.62274169921875 151.11997985839844 367.6027526855469 151.11997985839844 C 368.50274658203125 151.11997985839844 369.3860778808594 151.16665649414062 370.25274658203125 151.25997924804688 C 371.1260986328125 151.34664916992188 371.89276123046875 151.47998046875 372.5527648925781 151.6599884033203 L 370.12274169921875 160.0299835205078 ZM 374.8066711425781 175.86997985839844 C 374.8066711425781 172.38998413085938 375.3466796875 169.13665771484375 376.42669677734375 166.1099853515625 C 377.5066833496094 163.07666015625 379.02001953125 160.44998168945312 380.9666748046875 158.22998046875 C 382.9200134277344 156.00997924804688 385.260009765625 154.26998901367188 387.9866943359375 153.00997924804688 C 390.72003173828125 151.74998474121094 393.7066955566406 151.11997985839844 396.9466857910156 151.11997985839844 C 399.64666748046875 151.11997985839844 402.09002685546875 151.58665466308594 404.27667236328125 152.51998901367188 C 406.47003173828125 153.4466552734375 408.3766784667969 154.5999755859375 409.9966735839844 155.97998046875 L 409.9966735839844 152.19998168945312 L 417.3766784667969 152.19998168945312 L 417.3766784667969 187.6599884033203 C 417.3766784667969 189.9399871826172 417.9300231933594 191.42665100097656 419.03668212890625 192.11997985839844 C 420.1500244140625 192.80665588378906 421.36669921875 193.1499786376953 422.6866760253906 193.1499786376953 L 420.9766845703125 199.44998168945312 C 415.2166748046875 199.44998168945312 411.7366943359375 197.1099853515625 410.53668212890625 192.4299774169922 C 409.8166809082031 193.38998413085938 408.9900207519531 194.33665466308594 408.0566711425781 195.26998901367188 C 407.1300048828125 196.1966552734375 406.0666809082031 197.01998901367188 404.86669921875 197.739990234375 C 403.66668701171875 198.45999145507812 402.3166809082031 199.0299835205078 400.8166809082031 199.44998168945312 C 399.3166809082031 199.86997985839844 397.66668701171875 200.07998657226562 395.86669921875 200.07998657226562 C 392.92669677734375 200.07998657226562 390.183349609375 199.50997924804688 387.6366882324219 198.36997985839844 C 385.0833435058594 197.22998046875 382.8600158691406 195.6099853515625 380.9666748046875 193.50997924804688 C 379.08001708984375 191.4099884033203 377.58001708984375 188.87664794921875 376.4666748046875 185.9099884033203 C 375.3600158691406 182.9366455078125 374.8066711425781 179.58998107910156 374.8066711425781 175.86997985839844 M 397.66668701171875 192.87998962402344 C 399.9466857910156 192.87998962402344 402.106689453125 192.33998107910156 404.14666748046875 191.25997924804688 C 406.1866760253906 190.17999267578125 407.89666748046875 188.76998901367188 409.27667236328125 187.0299835205078 L 409.27667236328125 161.91998291015625 C 407.65667724609375 160.7799835205078 405.8700256347656 159.8666534423828 403.91668701171875 159.17999267578125 C 401.97003173828125 158.4866485595703 399.91668701171875 158.13998413085938 397.7566833496094 158.13998413085938 C 395.5966796875 158.13998413085938 393.61669921875 158.5599822998047 391.8166809082031 159.39999389648438 C 390.0166931152344 160.239990234375 388.4733581542969 161.42330932617188 387.1866760253906 162.94998168945312 C 385.8933410644531 164.4833221435547 384.8866882324219 166.32998657226562 384.16668701171875 168.489990234375 C 383.4466857910156 170.6499786376953 383.086669921875 173.01998901367188 383.086669921875 175.59999084472656 C 383.086669921875 178.11997985839844 383.4466857910156 180.4433135986328 384.16668701171875 182.56997680664062 C 384.8866882324219 184.7033233642578 385.90667724609375 186.53665161132812 387.2266845703125 188.06997680664062 C 388.54669189453125 189.59664916992188 390.0933532714844 190.7799835205078 391.86669921875 191.61997985839844 C 393.63336181640625 192.45999145507812 395.5666809082031 192.87998962402344 397.66668701171875 192.87998962402344 ZM 441.3168029785156 160.0299835205078 C 442.9967956542969 157.50997924804688 445.14013671875 155.3966522216797 447.7467956542969 153.6899871826172 C 450.3601379394531 151.97665405273438 453.466796875 151.11997985839844 457.0668029785156 151.11997985839844 C 462.3468017578125 151.11997985839844 466.2901306152344 152.70999145507812 468.89678955078125 155.88998413085938 C 471.5101318359375 159.06997680664062 472.8168029785156 163.26998901367188 472.8168029785156 168.489990234375 L 472.8168029785156 198.99998474121094 L 464.716796875 198.99998474121094 L 464.716796875 169.38998413085938 C 464.716796875 165.96998596191406 463.9367980957031 163.25665283203125 462.3768005371094 161.24998474121094 C 460.8168029785156 159.2366485595703 458.5968017578125 158.22998046875 455.716796875 158.22998046875 C 454.3367919921875 158.22998046875 452.98681640625 158.4866485595703 451.66680908203125 158.99998474121094 C 450.3468017578125 159.50665283203125 449.07012939453125 160.20999145507812 447.8367919921875 161.1099853515625 C 446.6101379394531 162.00997924804688 445.4701232910156 163.0599822998047 444.41680908203125 164.25997924804688 C 443.3701477050781 165.45999145507812 442.42681884765625 166.71998596191406 441.5867919921875 168.03997802734375 L 441.5867919921875 198.99998474121094 L 433.48681640625 198.99998474121094 L 433.48681640625 152.19998168945312 L 441.3168029785156 152.19998168945312 L 441.3168029785156 160.0299835205078 ZM 505.2881164550781 151.11997985839844 C 507.9881286621094 151.11997985839844 510.4014587402344 151.56997680664062 512.5281372070312 152.46998596191406 C 514.6614379882812 153.36997985839844 516.5081176757812 154.47998046875 518.068115234375 155.79998779296875 L 518.068115234375 152.19998168945312 L 525.4481201171875 152.19998168945312 L 525.4481201171875 197.91998291015625 C 525.4481201171875 201.8199920654297 524.9381103515625 205.1499786376953 523.9181518554688 207.9099884033203 C 522.8981323242188 210.66998291015625 521.4414672851562 212.9366455078125 519.548095703125 214.70999145507812 C 517.6614379882812 216.47665405273438 515.3981323242188 217.7799835205078 512.7581176757812 218.61997985839844 C 510.1181335449219 219.45999145507812 507.1781311035156 219.87998962402344 503.9381103515625 219.87998962402344 C 501.1181335449219 219.87998962402344 498.4181213378906 219.54998779296875 495.838134765625 218.88998413085938 C 493.25811767578125 218.22998046875 490.9481201171875 217.239990234375 488.9081115722656 215.91998291015625 L 491.87811279296875 208.8999786376953 C 493.318115234375 210.03997802734375 494.9981384277344 210.9833221435547 496.9181213378906 211.72998046875 C 498.838134765625 212.4833221435547 501.1781311035156 212.8599853515625 503.9381103515625 212.8599853515625 C 508.1981201171875 212.8599853515625 511.5414733886719 211.74998474121094 513.9681396484375 209.5299835205078 C 516.4014892578125 207.3099822998047 517.6181030273438 203.70999145507812 517.6181030273438 198.72998046875 L 517.6181030273438 192.96998596191406 C 516.4181518554688 194.4099884033203 514.6914672851562 195.7766571044922 512.4381103515625 197.0699920654297 C 510.19146728515625 198.35665893554688 507.50811767578125 198.99998474121094 504.38812255859375 198.99998474121094 C 501.7481384277344 198.99998474121094 499.1681213378906 198.47665405273438 496.64813232421875 197.4299774169922 C 494.12811279296875 196.37664794921875 491.9081115722656 194.84332275390625 489.9881286621094 192.82998657226562 C 488.068115234375 190.8233184814453 486.5214538574219 188.3666534423828 485.3481140136719 185.45999145507812 C 484.18145751953125 182.54664611816406 483.5981140136719 179.19998168945312 483.5981140136719 175.41998291015625 C 483.5981140136719 171.9399871826172 484.1681213378906 168.71664428710938 485.3081359863281 165.74998474121094 C 486.4481201171875 162.7766571044922 487.991455078125 160.20999145507812 489.9381408691406 158.04998779296875 C 491.8914489746094 155.88998413085938 494.1881408691406 154.1966552734375 496.828125 152.96998596191406 C 499.4681396484375 151.7366485595703 502.2881164550781 151.11997985839844 505.2881164550781 151.11997985839844 M 506.1881103515625 191.79998779296875 C 508.588134765625 191.79998779296875 510.7481384277344 191.25997924804688 512.6681518554688 190.17999267578125 C 514.588134765625 189.09999084472656 516.1481323242188 187.83998107910156 517.34814453125 186.3999786376953 L 517.34814453125 161.91998291015625 C 515.9681396484375 160.95999145507812 514.3781127929688 160.08998107910156 512.578125 159.3099822998047 C 510.77813720703125 158.5299835205078 508.6181335449219 158.13998413085938 506.0981140136719 158.13998413085938 C 504.2381286621094 158.13998413085938 502.4548034667969 158.5166473388672 500.7481384277344 159.26998901367188 C 499.0347900390625 160.0166473388672 497.51812744140625 161.1099853515625 496.1981201171875 162.54998779296875 C 494.87811279296875 163.989990234375 493.828125 165.74664306640625 493.0481262207031 167.81997680664062 C 492.26812744140625 169.88665771484375 491.87811279296875 172.26998901367188 491.87811279296875 174.96998596191406 C 491.87811279296875 177.54998779296875 492.26812744140625 179.87664794921875 493.0481262207031 181.94998168945312 C 493.828125 184.0166473388672 494.87811279296875 185.78665161132812 496.1981201171875 187.25997924804688 C 497.51812744140625 188.72665405273438 499.0347900390625 189.84999084472656 500.7481384277344 190.62998962402344 C 502.4548034667969 191.4099884033203 504.26812744140625 191.79998779296875 506.1881103515625 191.79998779296875 ZM 536.2457275390625 175.86997985839844 C 536.2457275390625 172.38998413085938 536.7857666015625 169.13665771484375 537.86572265625 166.1099853515625 C 538.9457397460938 163.07666015625 540.4590454101562 160.44998168945312 542.40576171875 158.22998046875 C 544.3590698242188 156.00997924804688 546.6990966796875 154.26998901367188 549.4257202148438 153.00997924804688 C 552.1590576171875 151.74998474121094 555.145751953125 151.11997985839844 558.3857421875 151.11997985839844 C 561.0857543945312 151.11997985839844 563.529052734375 151.58665466308594 565.7157592773438 152.51998901367188 C 567.9090576171875 153.4466552734375 569.8157348632812 154.5999755859375 571.4357299804688 155.97998046875 L 571.4357299804688 152.19998168945312 L 578.8157348632812 152.19998168945312 L 578.8157348632812 187.6599884033203 C 578.8157348632812 189.9399871826172 579.3690795898438 191.42665100097656 580.4757080078125 192.11997985839844 C 581.5890502929688 192.80665588378906 582.8057250976562 193.1499786376953 584.125732421875 193.1499786376953 L 582.415771484375 199.44998168945312 C 576.65576171875 199.44998168945312 573.1757202148438 197.1099853515625 571.9757080078125 192.4299774169922 C 571.2557373046875 193.38998413085938 570.4290771484375 194.33665466308594 569.4957275390625 195.26998901367188 C 568.569091796875 196.1966552734375 567.5057373046875 197.01998901367188 566.3057250976562 197.739990234375 C 565.105712890625 198.45999145507812 563.7557373046875 199.0299835205078 562.2557373046875 199.44998168945312 C 560.7557373046875 199.86997985839844 559.105712890625 200.07998657226562 557.3057250976562 200.07998657226562 C 554.36572265625 200.07998657226562 551.6224365234375 199.50997924804688 549.0757446289062 198.36997985839844 C 546.5223999023438 197.22998046875 544.299072265625 195.6099853515625 542.40576171875 193.50997924804688 C 540.51904296875 191.4099884033203 539.01904296875 188.87664794921875 537.90576171875 185.9099884033203 C 536.799072265625 182.9366455078125 536.2457275390625 179.58998107910156 536.2457275390625 175.86997985839844 M 559.105712890625 192.87998962402344 C 561.3857421875 192.87998962402344 563.5457153320312 192.33998107910156 565.5857543945312 191.25997924804688 C 567.625732421875 190.17999267578125 569.3357543945312 188.76998901367188 570.7157592773438 187.0299835205078 L 570.7157592773438 161.91998291015625 C 569.0957641601562 160.7799835205078 567.30908203125 159.8666534423828 565.355712890625 159.17999267578125 C 563.4090576171875 158.4866485595703 561.355712890625 158.13998413085938 559.1957397460938 158.13998413085938 C 557.0357666015625 158.13998413085938 555.0557250976562 158.5599822998047 553.2557373046875 159.39999389648438 C 551.4557495117188 160.239990234375 549.9124145507812 161.42330932617188 548.625732421875 162.94998168945312 C 547.3323974609375 164.4833221435547 546.3257446289062 166.32998657226562 545.605712890625 168.489990234375 C 544.8857421875 170.6499786376953 544.5257568359375 173.01998901367188 544.5257568359375 175.59999084472656 C 544.5257568359375 178.11997985839844 544.8857421875 180.4433135986328 545.605712890625 182.56997680664062 C 546.3257446289062 184.7033233642578 547.3457641601562 186.53665161132812 548.6657104492188 188.06997680664062 C 549.9857177734375 189.59664916992188 551.5324096679688 190.7799835205078 553.3057250976562 191.61997985839844 C 555.0723876953125 192.45999145507812 557.0057373046875 192.87998962402344 559.105712890625 192.87998962402344 ZM 594.2919921875 219.87998962402344 C 592.4920043945312 219.87998962402344 590.9186401367188 219.69998168945312 589.572021484375 219.33998107910156 C 588.2186889648438 218.97998046875 587.1519775390625 218.5599822998047 586.3720092773438 218.07998657226562 L 588.1719970703125 211.32998657226562 C 588.8919677734375 211.74998474121094 589.7786865234375 212.1099853515625 590.8319702148438 212.4099884033203 C 591.878662109375 212.70999145507812 593.0919799804688 212.8599853515625 594.4719848632812 212.8599853515625 C 595.7319946289062 212.8599853515625 596.9186401367188 212.67999267578125 598.031982421875 212.31997680664062 C 599.138671875 211.95999145507812 600.2020263671875 211.32998657226562 601.2219848632812 210.42999267578125 C 602.2420043945312 209.5299835205078 603.21533203125 208.29998779296875 604.1419677734375 206.739990234375 C 605.0753173828125 205.1799774169922 605.9920043945312 203.22998046875 606.8919677734375 200.88998413085938 L 608.9619750976562 195.489990234375 L 604.6419677734375 195.489990234375 L 586.3720092773438 154.3599853515625 L 593.572021484375 151.11997985839844 L 611.031982421875 190.08998107910156 L 624.6220092773438 151.47998046875 L 632.0919799804688 154.3599853515625 L 614.9019775390625 201.33998107910156 C 613.5819702148438 204.9399871826172 612.185302734375 207.92332458496094 610.7119750976562 210.28997802734375 C 609.245361328125 212.66331481933594 607.6719970703125 214.56997680664062 605.9920043945312 216.00997924804688 C 604.31201171875 217.44998168945312 602.4986572265625 218.4533233642578 600.552001953125 219.01998901367188 C 598.5986328125 219.59332275390625 596.5120239257812 219.87998962402344 594.2919921875 219.87998962402344 Z" transform="matrix(1, 0, 0, 1, -102.35697174072266, -159.48643493652344)" style="fill: rgb(0, 51, 255); white-space: pre; color: rgb(0, 51, 255); fill-opacity: 0.5;"/></svg>