<svg xmlns="http://www.w3.org/2000/svg" viewBox="0 0 48 48"><title>37-Certificate</title><g id="_37-Certificate" data-name="37-Certificate"><rect x="11" y="6" width="10" height="2"/><rect x="11" y="10" width="2" height="2"/><rect x="15" y="10" width="2" height="2"/><path d="M40,48H8a3,3,0,0,1-3-3V3A3,3,0,0,1,8,0H34a1,1,0,0,1,.707.293l8,8A1,1,0,0,1,43,9V45A3,3,0,0,1,40,48ZM8,2A1,1,0,0,0,7,3V45a1,1,0,0,0,1,1H40a1,1,0,0,0,1-1V9.414L33.586,2Z"/><path d="M38,10H36a3,3,0,0,1-3-3V1h2V7a1,1,0,0,0,1,1h2Z"/><path d="M29,34a9,9,0,1,1,9-9A9.01,9.01,0,0,1,29,34Zm0-16a7,7,0,1,0,7,7A7.009,7.009,0,0,0,29,18Z"/><path d="M34,43a1,1,0,0,1-.625-.219L29,39.28l-4.375,3.5A1,1,0,0,1,23,42V31h2v8.919l3.375-2.7a1,1,0,0,1,1.25,0L33,39.919V31h2V42a1,1,0,0,1-1,1Z"/><path d="M29,30a5,5,0,1,1,5-5A5.006,5.006,0,0,1,29,30Zm0-8a3,3,0,1,0,3,3A3,3,0,0,0,29,22Z"/><path d="M17,28H12a1,1,0,0,1-1-1V17a1,1,0,0,1,1-1h8v2H13v8h4Z"/><rect x="11" y="31" width="2" height="2"/><rect x="15" y="31" width="4" height="2"/><rect x="11" y="35" width="9" height="2"/><rect x="11" y="39" width="9" height="2"/></g></svg>