<?xml version="1.0" encoding="utf-8"?>
<!-- Generator: Adobe Illustrator 16.0.0, SVG Export Plug-In . SVG Version: 6.00 Build 0)  -->
<!DOCTYPE svg PUBLIC "-//W3C//DTD SVG 1.1//EN" "http://www.w3.org/Graphics/SVG/1.1/DTD/svg11.dtd">
<svg version="1.1" id="Layer_1" xmlns="http://www.w3.org/2000/svg" xmlns:xlink="http://www.w3.org/1999/xlink" x="0px" y="0px"
	 width="128px" height="128px" viewBox="0 0 128 128" enable-background="new 0 0 128 128" xml:space="preserve">
<g>
	<g>
		<rect x="9.688" y="41.53" fill="#282D33" width="4" height="65.279"/>
	</g>
	<g>
		<rect x="44.293" y="41.53" fill="#282D33" width="4" height="27.179"/>
	</g>
	<g>
		<path fill="#282D33" d="M49.284,44.784H8.699V30.568h40.585V44.784z M12.699,40.784h32.585v-6.216H12.699V40.784z"/>
	</g>
	<g>
		<g>
			<g>
				<rect x="17.333" y="49.417" fill="#282D33" width="4.637" height="4"/>
			</g>
			<g>
				<rect x="26.598" y="49.417" fill="#282D33" width="4.638" height="4"/>
			</g>
			<g>
				<rect x="35.862" y="49.417" fill="#282D33" width="4.641" height="4"/>
			</g>
		</g>
		<g>
			<g>
				<rect x="17.333" y="58.187" fill="#282D33" width="4.637" height="4"/>
			</g>
			<g>
				<rect x="26.598" y="58.187" fill="#282D33" width="4.638" height="4"/>
			</g>
			<g>
				<rect x="35.862" y="58.187" fill="#282D33" width="4.641" height="4"/>
			</g>
		</g>
		<g>
			<g>
				<rect x="17.333" y="66.953" fill="#282D33" width="4.637" height="4"/>
			</g>
		</g>
		<g>
			<g>
				<rect x="17.333" y="75.721" fill="#282D33" width="4.637" height="4"/>
			</g>
		</g>
		<g>
			<g>
				<rect x="17.333" y="84.49" fill="#282D33" width="4.637" height="4"/>
			</g>
		</g>
		<g>
			<g>
				<rect x="17.333" y="93.256" fill="#282D33" width="4.637" height="4"/>
			</g>
		</g>
	</g>
	<g>
		<rect x="82.332" y="41.53" fill="#282D33" width="4" height="26.762"/>
	</g>
	<g>
		<rect x="116.939" y="41.53" fill="#282D33" width="4" height="65.279"/>
	</g>
	<g>
		<path fill="#282D33" d="M121.932,44.784H81.344V30.568h40.588V44.784z M85.344,40.784h32.588v-6.216H85.344V40.784z"/>
	</g>
	<g>
		<g>
			<g>
				<rect x="89.979" y="49.417" fill="#282D33" width="4.637" height="4"/>
			</g>
			<g>
				<rect x="99.244" y="49.417" fill="#282D33" width="4.639" height="4"/>
			</g>
			<g>
				<rect x="108.512" y="49.417" fill="#282D33" width="4.639" height="4"/>
			</g>
		</g>
		<g>
			<g>
				<rect x="89.979" y="58.187" fill="#282D33" width="4.637" height="4"/>
			</g>
			<g>
				<rect x="99.244" y="58.187" fill="#282D33" width="4.639" height="4"/>
			</g>
			<g>
				<rect x="108.512" y="58.187" fill="#282D33" width="4.639" height="4"/>
			</g>
		</g>
		<g>
			<g>
				<rect x="108.512" y="66.953" fill="#282D33" width="4.639" height="4"/>
			</g>
		</g>
		<g>
			<g>
				<rect x="108.512" y="75.721" fill="#282D33" width="4.639" height="4"/>
			</g>
		</g>
		<g>
			<g>
				<rect x="108.512" y="84.49" fill="#282D33" width="4.639" height="4"/>
			</g>
		</g>
		<g>
			<g>
				<rect x="108.512" y="93.256" fill="#282D33" width="4.639" height="4"/>
			</g>
		</g>
	</g>
	<g>
		<rect x="0.372" y="104.809" fill="#282D33" width="127.257" height="4"/>
	</g>
	<g>
		<path fill="#282D33" d="M102.932,108.807h-77.69V66.813h77.69V108.807z M29.242,104.807h69.69V70.813h-69.69V104.807z"/>
	</g>
	<g>
		<polygon fill="#282D33" points="93.332,106.688 89.332,106.688 89.332,90.425 41.35,90.425 41.35,106.688 37.35,106.688 
			37.35,86.425 93.332,86.425 		"/>
	</g>
	<g>
		<rect x="36.282" y="114.396" fill="#282D33" width="58.365" height="4"/>
	</g>
	<g>
		<rect x="25.843" y="124" fill="#282D33" width="79.237" height="4"/>
	</g>
	<g>
		<rect x="63.463" y="87.482" fill="#282D33" width="4" height="18.789"/>
	</g>
	<g>
		<rect x="27.269" y="75.998" fill="#282D33" width="73.638" height="4"/>
	</g>
	<g>
		<g>
			<path fill="#282D33" d="M101.553,24.071c-0.338-0.526-0.688-1.045-1.049-1.557l3.266-2.309c0.396,0.561,0.779,1.129,1.15,1.706
				L101.553,24.071z"/>
		</g>
		<g>
			<path fill="#282D33" d="M30.535,20.574l-3.134-2.486c0.831-1.047,1.717-2.073,2.634-3.048l2.914,2.74
				C32.109,18.674,31.297,19.614,30.535,20.574z M98.283,19.637c-0.789-0.94-1.625-1.857-2.488-2.726l2.838-2.819
				c0.941,0.948,1.855,1.95,2.717,2.976L98.283,19.637z M35.589,15.198l-2.675-2.974c0.993-0.893,2.038-1.756,3.106-2.566
				l2.416,3.188C37.458,13.588,36.5,14.379,35.589,15.198z M93.084,14.401c-0.936-0.796-1.914-1.561-2.908-2.272l2.326-3.253
				c1.086,0.776,2.154,1.61,3.174,2.479L93.084,14.401z M41.47,10.742l-2.139-3.38c1.133-0.717,2.309-1.393,3.495-2.009l1.845,3.549
				C43.585,9.466,42.508,10.085,41.47,10.742z M87.084,10.11c-1.053-0.626-2.146-1.216-3.248-1.751l1.748-3.598
				c1.203,0.584,2.396,1.227,3.545,1.911L87.084,10.11z M48.016,7.339l-1.538-3.692c1.237-0.515,2.51-0.983,3.785-1.391l1.219,3.81
				C50.314,6.439,49.148,6.867,48.016,7.339z M80.453,6.891c-1.145-0.439-2.32-0.835-3.496-1.175l1.111-3.843
				c1.285,0.372,2.57,0.804,3.82,1.284L80.453,6.891z M55.042,5.092l-0.888-3.9c1.305-0.297,2.639-0.542,3.965-0.728l0.556,3.961
				C57.46,4.595,56.237,4.819,55.042,5.092z M73.375,4.842c-1.199-0.239-2.428-0.429-3.648-0.567l0.447-3.975
				c1.334,0.15,2.672,0.358,3.982,0.619L73.375,4.842z M62.35,4.067l-0.222-3.994C63.022,0.024,63.947,0.013,64.84,0
				c0.439,0,0.879,0.006,1.316,0.019l-0.113,3.998C65.629,4.006,65.244,4.013,64.795,4C63.977,4,63.155,4.022,62.35,4.067z"/>
		</g>
		<g>
			<path fill="#282D33" d="M28.028,24.076l-3.36-2.17c0.371-0.574,0.753-1.14,1.146-1.698l3.271,2.303
				C28.722,23.025,28.369,23.547,28.028,24.076z"/>
		</g>
	</g>
</g>
</svg>
